<?xml version="1.0" standalone="no"?>
<!DOCTYPE svg PUBLIC "-//W3C//DTD SVG 20010904//EN"
 "http://www.w3.org/TR/2001/REC-SVG-20010904/DTD/svg10.dtd">
<svg version="1.0" xmlns="http://www.w3.org/2000/svg"
 width="500.000000pt" height="311.000000pt" viewBox="0 0 500.000000 311.000000"
 preserveAspectRatio="xMidYMid meet">

<g transform="translate(0.000000,311.000000) scale(0.100000,-0.100000)"
fill="#4154f1" stroke="none">
<path d="M2985 3104 c-16 -2 -68 -9 -115 -15 -307 -42 -642 -210 -860 -433
l-54 -56 50 0 c39 0 55 5 70 21 25 28 147 127 204 166 91 62 238 133 355 172
173 58 280 75 470 75 189 0 297 -17 466 -74 447 -148 790 -491 938 -935 58
-174 75 -280 75 -470 0 -186 -22 -321 -80 -487 -150 -431 -497 -773 -929 -917
-172 -57 -280 -74 -470 -74 -189 0 -298 17 -466 73 -129 43 -229 90 -334 158
-73 47 -196 144 -229 181 -15 16 -31 21 -70 21 l-50 0 59 -61 c120 -122 317
-254 484 -324 594 -251 1284 -108 1726 357 115 121 193 230 264 371 188 369
220 798 90 1192 -178 539 -645 940 -1214 1041 -80 14 -323 26 -380 18z"/>
<path d="M975 2368 c5 -18 10 -392 12 -830 l3 -798 90 0 90 0 2 293 3 292 220
-292 220 -293 103 0 c83 0 101 3 95 13 -4 8 -96 129 -203 271 -107 142 -209
276 -227 300 l-32 42 186 205 c102 112 195 214 206 227 l20 22 -94 0 -94 -1
-200 -221 -200 -222 -3 512 -2 512 -101 0 -101 0 7 -32z"/>
<path d="M2050 2307 c-68 -24 -101 -118 -65 -187 41 -79 179 -79 220 0 38 74
2 169 -73 190 -44 12 -38 12 -82 -3z"/>
<path d="M2664 2103 c-26 -121 -80 -233 -132 -273 -14 -12 -45 -25 -69 -31
l-43 -11 0 -49 0 -49 79 0 80 0 3 -402 c3 -385 4 -405 24 -448 40 -86 103
-120 228 -120 57 0 174 21 197 36 7 4 -15 101 -24 111 -3 2 -34 -2 -71 -8 -86
-16 -138 -2 -163 44 -16 29 -18 68 -18 407 l0 375 124 5 124 5 18 63 17 62
-139 0 -139 0 0 48 c1 26 9 95 19 155 l17 107 -63 0 c-60 0 -63 -1 -69 -27z"/>
<path d="M3562 1839 c-86 -11 -161 -48 -228 -111 -279 -264 -229 -807 89 -963
83 -40 192 -60 276 -50 118 14 229 53 290 102 l23 19 -31 51 -32 52 -52 -24
c-262 -120 -476 -33 -542 220 -8 32 -15 83 -15 112 l0 53 344 0 344 0 4 63
c21 271 -100 448 -324 477 -40 5 -75 9 -78 8 -3 0 -33 -4 -68 -9z m164 -148
c71 -32 124 -127 124 -223 l0 -38 -251 0 -251 0 7 28 c23 96 95 195 168 231
54 27 146 28 203 2z"/>
<path d="M1995 1788 c4 -18 10 -261 12 -540 l4 -508 89 0 90 0 0 540 0 540
-101 0 -101 0 7 -32z"/>
<path d="M387 1978 c-3 -7 -9 -56 -16 -110 -6 -52 -14 -110 -17 -128 l-9 -33
-79 0 -79 0 0 -40 0 -40 76 0 c67 0 75 -2 70 -17 -2 -10 -7 -44 -11 -75 l-7
-58 -85 0 -85 0 3 -37 3 -38 78 -3 c74 -3 77 -4 72 -25 -5 -24 -35 -242 -35
-257 0 -6 18 -10 40 -10 22 0 40 4 40 10 0 15 30 233 35 258 5 20 11 22 76 24
l80 0 -6 -32 c-5 -31 -35 -247 -35 -255 0 -2 18 -3 40 -3 36 0 39 2 44 33 7
41 36 246 36 252 0 3 36 5 80 5 l80 0 0 40 0 40 -76 0 -76 0 6 28 c3 15 8 48
12 75 l7 47 79 0 79 0 0 40 0 40 -75 0 c-73 0 -75 1 -71 23 3 12 10 63 16 112
6 50 14 102 16 118 5 26 4 27 -34 27 -46 0 -43 7 -62 -145 -18 -147 -10 -135
-91 -135 l-70 0 5 33 c3 17 10 68 16 112 6 44 13 92 16 108 5 26 4 27 -36 27
-24 0 -42 -5 -44 -12z m180 -395 c-15 -110 -9 -103 -87 -103 l-70 0 6 48 c15
110 8 102 87 102 l70 0 -6 -47z"/>
</g>
</svg>
